<svg xmlns="http://www.w3.org/2000/svg" viewBox="0 0 201.06 174.12"><defs><style>.cls-1,.cls-4,.cls-6{fill:#616163;}.cls-2{fill:#081244;opacity:0.7;}.cls-3,.cls-5,.cls-7,.cls-8{fill:none;}.cls-3,.cls-4,.cls-5,.cls-6,.cls-7,.cls-8{stroke:#d2f64f;}.cls-3,.cls-7,.cls-8{stroke-linejoin:round;}.cls-3,.cls-4{stroke-width:4.01px;}.cls-4,.cls-5,.cls-6{stroke-miterlimit:10;}.cls-5,.cls-6,.cls-7{stroke-width:4.01px;}.cls-7,.cls-8{stroke-linecap:round;}.cls-8{stroke-width:4.01px;}</style></defs><title>documentation</title><g id="Layer_2" data-name="Layer 2"><g id="Layer_1-2" data-name="Layer 1"><polygon class="cls-1" points="150.79 0 50.27 0 0 87.06 50.27 174.12 150.79 174.12 201.06 87.06 150.79 0"/><polygon class="cls-2" points="0.12 86.95 3.9 93.5 52.33 9.63 152.74 9.63 199.16 90.03 200.94 86.95 150.74 0 50.33 0 0.12 86.95"/><rect class="cls-3" x="68.1" y="27.11" width="82.39" height="99.46" rx="3"/><rect class="cls-4" x="59.33" y="37.33" width="82.39" height="99.46" rx="3"/><rect class="cls-1" x="50.57" y="47.55" width="82.39" height="99.46" rx="3"/><rect class="cls-5" x="50.57" y="47.56" width="82.39" height="99.46" rx="3"/><rect class="cls-1" x="59.33" y="54.48" width="21.93" height="21.93" rx="2.7"/><rect class="cls-5" x="59.33" y="54.48" width="21.93" height="21.93" rx="2.7"/><rect class="cls-1" x="59.33" y="86.32" width="21.93" height="21.93" rx="2.7"/><rect class="cls-5" x="59.33" y="86.32" width="21.93" height="21.93" rx="2.7"/><rect class="cls-6" x="59.33" y="118.15" width="21.93" height="21.93" rx="2.7"/><line class="cls-7" x1="89.39" y1="59.28" x2="121.56" y2="59.28"/><line class="cls-7" x1="89.39" y1="65.45" x2="121.56" y2="65.45"/><line class="cls-7" x1="89.39" y1="71.61" x2="121.56" y2="71.61"/><line class="cls-7" x1="89.39" y1="91.12" x2="121.56" y2="91.12"/><line class="cls-7" x1="89.39" y1="97.29" x2="121.56" y2="97.29"/><line class="cls-7" x1="89.39" y1="103.45" x2="121.56" y2="103.45"/><line class="cls-7" x1="89.39" y1="122.96" x2="121.56" y2="122.96"/><line class="cls-7" x1="89.39" y1="129.13" x2="121.56" y2="129.13"/><line class="cls-7" x1="89.39" y1="135.29" x2="121.56" y2="135.29"/><polyline class="cls-8" points="64.44 67.11 67.78 70.45 76.16 62.07"/><polyline class="cls-8" points="64.44 98.14 67.78 101.48 76.16 93.1"/><polyline class="cls-8" points="64.44 129.16 67.78 132.5 76.16 124.12"/></g></g></svg>