<svg xmlns="http://www.w3.org/2000/svg" viewBox="0 0 103.94 123.93"><defs><style>.cls-1,.cls-2,.cls-3,.cls-4,.cls-5{fill:none;stroke:#616163;}.cls-1,.cls-4,.cls-5{stroke-linejoin:round;}.cls-1,.cls-2{stroke-width:4.01px;}.cls-2,.cls-3{stroke-miterlimit:10;}.cls-3,.cls-4{stroke-width:4.01px;}.cls-4,.cls-5{stroke-linecap:round;}.cls-5{stroke-width:4.01px;}</style></defs><title>greydocumentation</title><g id="Layer_2" data-name="Layer 2"><g id="Layer_1-2" data-name="Layer 1"><path class="cls-1" d="M19.54,12.23V5a3,3,0,0,1,3-3h76.4a3,3,0,0,1,3,3V98.47a3,3,0,0,1-3,3H93.17"/><path class="cls-2" d="M10.78,22.46V15.23a3,3,0,0,1,3-3h76.4a3,3,0,0,1,3,3V108.7a3,3,0,0,1-3,3H84.4"/><rect class="cls-3" x="2.01" y="22.46" width="82.39" height="99.46" rx="3"/><rect class="cls-3" x="10.78" y="29.39" width="21.93" height="21.93" rx="2.7"/><rect class="cls-3" x="10.78" y="61.22" width="21.93" height="21.93" rx="2.7"/><rect class="cls-3" x="10.78" y="93.05" width="21.93" height="21.93" rx="2.7"/><line class="cls-4" x1="40.83" y1="34.18" x2="73" y2="34.18"/><line class="cls-4" x1="40.83" y1="40.35" x2="73" y2="40.35"/><line class="cls-4" x1="40.83" y1="46.52" x2="73" y2="46.52"/><line class="cls-4" x1="40.83" y1="66.02" x2="73" y2="66.02"/><line class="cls-4" x1="40.83" y1="72.19" x2="73" y2="72.19"/><line class="cls-4" x1="40.83" y1="78.36" x2="73" y2="78.36"/><line class="cls-4" x1="40.83" y1="97.86" x2="73" y2="97.86"/><line class="cls-4" x1="40.83" y1="104.03" x2="73" y2="104.03"/><line class="cls-4" x1="40.83" y1="110.2" x2="73" y2="110.2"/><polyline class="cls-5" points="15.88 42.01 19.22 45.35 27.6 36.97"/><polyline class="cls-5" points="15.88 73.04 19.22 76.38 27.6 68"/><polyline class="cls-5" points="15.88 104.07 19.22 107.41 27.6 99.02"/></g></g></svg>