<svg id="Layer_1" data-name="Layer 1" xmlns="http://www.w3.org/2000/svg" viewBox="0 0 180 360"><defs><style>.cls-1{fill:#d2f64f;}.cls-2{fill:#d4dd5e;}.cls-3{fill:#a6a7ab;}.cls-4{fill:none;stroke:#616263;stroke-linecap:round;stroke-linejoin:round;stroke-width:9.53px;}</style></defs><title>logo</title><circle class="cls-1" cx="72.94" cy="38.61" r="19.11"/><circle class="cls-1" cx="114.53" cy="67.44" r="8.83"/><circle class="cls-1" cx="78.69" cy="95.9" r="14.05"/><polygon class="cls-2" points="35.06 228.37 86.97 169.75 104.77 185.1 144.37 230.99 143.32 259.47 132.36 285.2 105.71 301.78 82.11 304.47 56.08 293.88 37.08 272.23 31.14 247.01 35.06 228.37"/><polygon class="cls-3" points="32.94 218.25 32.94 146.94 144.37 146.94 144.37 225.7 133.51 215.9 104.49 184.82 88.65 169.75 69.04 188.56 50.26 208.3 35.53 223.78 32.94 218.25"/><path class="cls-4" d="M32.94,146.94H144.36a0,0,0,0,1,0,0V248.76a55.71,55.71,0,0,1-55.71,55.71h0a55.71,55.71,0,0,1-55.71-55.71V146.94a0,0,0,0,1,0,0Z"/><line class="cls-4" x1="8.93" y1="146.94" x2="168.38" y2="146.94"/><path class="cls-4" d="M88.65,334V169.75s-55.71,50.86-55.71,64.93"/><path class="cls-4" d="M88.65,334V169.75s55.71,50.86,55.71,64.93"/><polyline class="cls-4" points="121.28 202.06 88.75 234.59 56.08 201.92"/><polyline class="cls-4" points="35.53 227.52 88.87 280.86 142.75 226.99"/></svg>