<svg id="Layer_1" data-name="Layer 1" xmlns="http://www.w3.org/2000/svg" viewBox="0 0 215.44 215.44"><defs><style>.cls-1{fill:#616163;}.cls-2{fill:#fff;}</style></defs><title>pin</title><path class="cls-1" d="M82.88,142.84C63.81,162,45.44,180,27.55,198.52c-4.59,4.76-9.2,6.68-15.75,5.18-1.06-5.36-.88-10,3.82-14.54,17.72-17.18,35-34.8,52.48-52.26,1.22-1.23,2.4-2.51,3.87-4.05L32.3,93.31c15.87-17.7,35-25.56,58.33-23.24,1.67.17,4.11-1.5,5.25-3C109,49.41,122,31.64,134.79,14.15l66.47,66.49c-14.44,10.59-28.94,22-44.29,32.18-8.58,5.68-12.44,11.48-11.75,22.39,1.11,17.63-7.08,32.57-22.62,47.52ZM121,160c6.9-9.85,12.24-21.06,9.22-33.05-2.69-10.65,1.83-15.44,9.59-19.84a17.6,17.6,0,0,0,1.76-1.2l36.78-27.06L136.74,37c-.49.62-1.16,1.4-1.76,2.23-10.72,14.56-21.56,29-32,43.76-2.4,3.39-4.51,3.83-8.25,2.86-14.57-3.77-27.53.22-39.34,8.46Z"/><path class="cls-1" d="M15.92,209.66a24.14,24.14,0,0,1-5.34-.64l-3.46-.79-.68-3.48c-1.1-5.59-1.48-12.87,5.38-19.52,13-12.6,26-25.68,38.6-38.33L64.23,133l.1-.09L24.78,93.53l3.46-3.86c16.94-18.9,37.9-27.34,62.3-25.09a3.93,3.93,0,0,0,1-.79C101.87,49.87,112.25,35.68,122.3,22L134.15,5.78l75.47,75.5L204.49,85c-4.21,3.09-8.52,6.32-12.68,9.44C181.56,102.16,171,110.1,160,117.37c-7.57,5-9.84,9.26-9.31,17.49,1.16,18.3-6.56,34.76-24.29,51.81l-3.86,3.72L82.88,150.57,71.21,162.21c-13.77,13.73-26.78,26.7-39.73,40.1C26.71,207.26,21.67,209.66,15.92,209.66Zm24-116.44L79.6,132.76l-3.68,3.86L74.58,138c-.92,1-1.76,1.87-2.62,2.73Q65,147.68,58.16,154.6c-12.61,12.69-25.66,25.8-38.74,38.48a7.48,7.48,0,0,0-2.69,5.62c2.42-.23,4.48-1.47,6.9-4,13-13.48,26.06-26.49,39.87-40.26Q71.19,146.82,79,139l3.87-3.88L122.6,175c12.72-13.36,18-25.69,17.17-39.45-.78-12.2,3.34-20.11,14.19-27.29s21.18-14.93,31.3-22.52L192.92,80,135.43,22.51l-4.32,5.9c-10.06,13.74-20.46,28-30.85,41.9-1.73,2.32-5.87,5.62-10.17,5.2C70.47,73.55,54,79.35,39.94,93.22Zm81.82,75.22L46.9,93.6l5.35-3.73c14.31-10,29.05-13.09,43.83-9.26a7.79,7.79,0,0,0,1.57.27,5.35,5.35,0,0,0,.86-1c7.79-11,15.92-22,23.79-32.63q4.14-5.61,8.28-11.22c.48-.65,1-1.28,1.44-1.84l.45-.55,3.81-4.8,50.43,50.64-9.39,6.91-32.5,23.91-.12.09a19.57,19.57,0,0,1-2.18,1.46c-6.75,3.83-8.82,6.48-7,13.76,3.86,15.28-3.88,28.73-10,37.51ZM64.09,95.35l56,56c5.12-8.77,6.62-16,4.85-23.07-3.7-14.67,4.08-21.34,12.19-25.93a12.22,12.22,0,0,0,1.09-.75l.13-.09L170,78.2,137.29,45.33l-6.21,8.41c-7.83,10.59-15.93,21.55-23.67,32.45-4.58,6.47-9.93,6.06-14.07,5C83.49,88.62,73.87,90,64.09,95.35Z"/><path class="cls-2" d="M121,160,55.37,94.35c11.81-8.24,24.77-12.23,39.34-8.46,3.74,1,5.85.53,8.25-2.86,10.46-14.74,21.3-29.2,32-43.76.6-.83,1.27-1.61,1.76-2.23l41.63,41.8L141.59,105.9a17.6,17.6,0,0,1-1.76,1.2c-7.76,4.4-12.28,9.19-9.59,19.84C133.26,138.93,127.92,150.14,121,160Z"/></svg>